HIERARCHY
ROOT pelvis
{
  OFFSET 0 100 0
  CHANNELS 6 Xposition Yposition Zposition Zrotation Xrotation Yrotation
  JOINT pelvis_right_femur
  {
    OFFSET -10.78128 -3.44521 -0.5502486
    CHANNELS 3 Zrotation Xrotation Yrotation
    JOINT right_femur_tibia
    {
      OFFSET -0.8047443 -44.0398 -0.1307829
      CHANNELS 3 Zrotation Xrotation Yrotation
      JOINT right_tibia_foot
      {
        OFFSET 3.006224 -47.83518 -5
        CHANNELS 3 Zrotation Xrotation Yrotation
        End Site
        {
          OFFSET 0 -5 15
        }
      }
    }
  }
  JOINT pelvis_left_femur
  {
    OFFSET 10.78128 -3.44521 -0.5502486
    CHANNELS 3 Zrotation Xrotation Yrotation
    JOINT left_femur_tibia
    {
      OFFSET 0.8047443 -44.0398 -0.1307829
      CHANNELS 3 Zrotation Xrotation Yrotation
      JOINT left_tibia_foot
      {
        OFFSET -4.370144 -48.10324 -4.275266
        CHANNELS 3 Zrotation Xrotation Yrotation
        End Site
        {
          OFFSET 0 -5 15
        }
      }
    }
  }
  JOINT pelvis_spine1
  {
    OFFSET 0 6.468898 -3.129235
    CHANNELS 3 Zrotation Xrotation Yrotation
    JOINT spine1
    {
      OFFSET 0 23.15396 4.99043
      CHANNELS 3 Zrotation Xrotation Yrotation
      JOINT spine2
      {
        OFFSET 0 20.79997 -5.064912
        CHANNELS 3 Zrotation Xrotation Yrotation
        JOINT neck
        {
          OFFSET 0 14.38658 9.616178
          CHANNELS 3 Zrotation Xrotation Yrotation
          End Site
          {
            OFFSET 0 20 0
          }
        }
      }
      JOINT right_manubrium
      {
        OFFSET -5.722621 16.35077 3.967754
        CHANNELS 3 Zrotation Xrotation Yrotation
        JOINT right_clavicle
        {
          OFFSET -13.16364 1.694482 -4.693211
          CHANNELS 3 Zrotation Xrotation Yrotation
          JOINT right_humerus
          {
            OFFSET -28.5034 -0.3100689 -2.792744
            CHANNELS 3 Zrotation Xrotation Yrotation
            JOINT right_radius
            {
              OFFSET -25.15693 0.02248979 -1.271978
              CHANNELS 3 Zrotation Xrotation Yrotation
              End Site
              {
                OFFSET -15 0 0
              }
            }
          }
        }
      }
      JOINT left_manubrium
      {
        OFFSET 5.722621 16.35077 3.967754
        CHANNELS 3 Zrotation Xrotation Yrotation
        JOINT left_clavicle
        {
          OFFSET 13.16364 1.694482 -4.693211
          CHANNELS 3 Zrotation Xrotation Yrotation
          JOINT left_humerus
          {
            OFFSET 29.39168 -1.063119 -2.237045
            CHANNELS 3 Zrotation Xrotation Yrotation
            JOINT left_radius
            {
              OFFSET 24.59957 -0.9528479 0.9047498
              CHANNELS 3 Zrotation Xrotation Yrotation
              End Site
              {
                OFFSET 15 -0 -0
              }
            }
          }
        }
      }
    }
  }
}
MOTION
Frames: 19
Frame Time: 0.0416666666667
0 103.5113 0 2.072942 -0.8772216 0.04371058 4.092321 -16.34602 9.691901 -0 38.72989 -0 -3.48093 -18.08676 -1.770117 -8.986026 11.37786 -23.26496 -0 5.194666 -0 19.83236 -10.26474 31.23808 -2.827211 -2.82744 4.162775 3.077846 9.548384 -8.08042 1.688555 20.62385 7.306732 3.136906 -26.1423 10.61074 6.231867 -19.13566 11.87409 86.65631 37.69556 -19.29035 -0 0 14.98887 -6.357106 9.841465 4.131451 6.74859 -19.78695 0.05182438 -91.00179 21.19265 18.92661 0 0 -17.55455 13.73733 14.36265 -2.508389
0.4476552 103.6333 1.719961 1.694286 0.1831061 0.08463528 5.221578 -18.55617 10.54309 -0 38.22981 -0 -3.429153 -17.34709 -1.550877 -9.116557 10.91543 -22.98902 -0 5.357894 -0 21.36214 -10.05888 31.86114 -2.812113 -2.767245 4.180638 3.09192 9.477929 -8.014099 1.649034 20.41655 7.642668 3.247183 -26.61635 10.97328 6.073174 -19.38313 11.94154 86.81469 38.59769 -19.25889 -0 0 14.81067 -6.183935 9.973039 4.363145 6.784251 -19.79043 -0.03318256 -90.38059 21.09425 18.66792 0 0 -19.57122 14.5184 13.50034 -3.074287
0.8339353 103.4428 3.673888 1.595708 0.4067961 0.1880339 4.452348 -19.97626 8.323249 -0 33.3674 -0 -4.531677 -14.83738 -1.435868 -8.530385 11.40041 -22.20109 -0 5.246883 -0 17.10539 -13.44639 29.01206 -2.553535 -2.397901 4.1061 3.241641 9.670326 -7.932172 1.606412 20.50839 7.607517 3.159587 -26.41417 10.87213 5.835324 -18.87793 11.93309 87.26965 38.4726 -19.91279 -0 0 13.24176 -6.116069 9.889557 4.561334 6.534579 -20.0207 -0.7967956 -89.70611 21.41614 18.0766 0 0 -21.42154 14.47016 12.36224 -2.567828
1.195957 103.1973 5.710627 1.146842 1.319432 0.3280389 5.067657 -21.96042 8.754041 -0 31.70515 -0 -4.929171 -13.68003 -1.746431 -8.185254 11.25238 -22.11788 -0 5.228526 -0 15.11636 -15.46677 28.34159 -2.347203 -2.17765 4.074133 3.346088 9.84982 -7.944879 1.537904 20.52029 7.58915 3.115149 -26.34297 10.75809 5.64627 -18.59044 11.90884 87.76066 38.26483 -20.60333 -0 0 12.19043 -6.08695 9.732906 4.668203 6.377681 -20.29547 -1.358351 -89.28775 21.64097 17.76943 0 0 -22.70555 14.30888 11.51734 -2.035345
1.538972 102.7953 8.070668 0.8381932 2.095144 0.5638169 5.254643 -24.61279 7.657117 -0 27.9563 -0 -5.469579 -11.44092 -1.431564 -7.874327 11.51293 -21.11232 -0 5.507346 -0 13.51749 -17.15109 26.53681 -2.15367 -1.995066 4.040469 3.433287 10.05639 -8.009431 1.470822 20.53766 7.520168 3.0711 -26.19262 10.5615 5.505997 -18.29509 11.879 88.26098 37.86049 -21.35183 -0 0 11.26469 -6.139159 9.572387 4.721549 6.244155 -20.60122 -1.867728 -88.98868 21.85798 17.50632 0 0 -23.58238 13.94491 10.8747 -1.346571
1.871346 102.31 10.6862 0.4222863 2.940373 0.8932621 5.787913 -27.0461 7.423947 -0 25.40357 -0 -5.812157 -9.790288 -1.34803 -7.554535 11.67084 -20.50635 -0 5.889796 -0 12.08463 -18.57084 25.31685 -1.976622 -1.86416 4.027703 3.489968 10.27505 -8.105383 1.409184 20.54139 7.438022 3.043458 -26.03964 10.34264 5.414428 -18.05782 11.84848 88.73423 37.38356 -22.08599 -0 0 10.54543 -6.236995 9.437583 4.722345 6.148705 -20.91197 -2.284678 -88.83603 22.07567 17.37125 0 0 -24.12316 13.4799 10.43351 -0.5867751
2.200465 101.7293 13.75425 -0.03862658 3.795064 1.345921 6.299274 -30.02144 6.577602 -0 21.7876 -0 -6.257796 -7.391798 -0.9054425 -7.204615 12.05981 -19.36843 -0 6.929959 -0 10.86116 -19.62816 23.53825 -1.81615 -1.767478 4.032014 3.520041 10.49501 -8.211892 1.356613 20.54257 7.345547 3.027246 -25.8733 10.11185 5.361964 -17.86014 11.81982 89.15228 36.87561 -22.76153 -0 0 9.985961 -6.377774 9.340628 4.693784 6.079364 -21.21015 -2.625099 -88.78841 22.29734 17.32482 0 0 -24.41212 12.95309 10.15201 0.2072791
2.534062 101.101 17.2788 -0.5803022 4.484924 1.911824 6.922844 -32.51336 6.031333 -0 18.94137 -0 -6.663456 -5.278178 -0.54777 -6.77048 12.48354 -18.40122 -0 8.470449 -0 9.390621 -20.32335 21.82207 -1.670225 -1.697567 4.055035 3.526124 10.70767 -8.316131 1.311161 20.54076 7.253972 3.02261 -25.71227 9.885725 5.335205 -17.70656 11.7926 89.5116 36.3825 -23.36145 -0 0 9.56336 -6.548268 9.277365 4.65152 6.030733 -21.48994 -2.900099 -88.82041 22.5247 17.36024 0 0 -24.53685 12.40806 9.984222 1.001778
2.878379 100.4836 21.42792 -1.236811 4.927547 2.575777 7.584018 -34.68295 5.201537 -0 16.06237 -0 -7.21394 -2.81945 -0.04083777 -6.190133 13.05116 -17.08627 -0 11.37289 -0 7.593859 -20.30671 19.59754 -1.538326 -1.646438 4.093385 3.512686 10.90607 -8.4104 1.271058 20.53769 7.168435 3.02738 -25.56164 9.671341 5.323215 -17.59155 11.7665 89.8133 35.92919 -23.87893 -0 0 9.248618 -6.741993 9.242104 4.609718 5.996785 -21.74812 -3.122805 -88.90189 22.75415 17.45319 0 0 -24.56519 11.87158 9.891382 1.772826
3.23773 99.97537 26.22076 -1.955017 4.987197 3.267669 8.266276 -35.63096 4.5587 -0 14.2726 -0 -7.804377 -0.8265718 0.3027355 -5.464249 13.52663 -15.80258 -0 15.54645 -0 5.261772 -19.43876 17.21856 -1.419273 -1.608595 4.143829 3.483715 11.08665 -8.491543 1.23431 20.53337 7.09284 3.040196 -25.42633 9.47292 5.317837 -17.51077 11.74107 90.06509 35.52957 -24.31844 -0 0 9.017973 -6.952956 9.228329 4.576891 5.97358 -21.9853 -3.304472 -89.01056 22.98268 17.5852 0 0 -24.54818 11.36046 9.843797 2.50678
3.605043 99.71811 31.70463 -2.676767 4.544762 3.860594 8.882038 -34.76255 3.935912 -0 13.51319 -0 -8.503684 0.6079735 0.4030599 -4.59585 13.6655 -14.21844 -0 21.96509 -0 2.46642 -17.15666 14.5405 -1.312085 -1.57966 4.202721 3.442796 11.24813 -8.558986 1.199674 20.52815 7.028467 3.059542 -25.30664 9.291233 5.314138 -17.45812 11.71616 90.27499 35.18735 -24.68796 -0 0 8.851288 -7.177481 9.231324 4.557753 5.958073 -22.20292 -3.454261 -89.12971 23.2075 17.7392 0 0 -24.51787 10.88194 9.821753 3.197753
3.963367 99.86023 37.72603 -3.225143 3.723248 4.193457 9.306017 -31.5754 3.630154 -0 14.05933 -0 -9.159023 0.7070652 -0.002931282 -3.741873 12.9146 -12.56575 -0 30.21376 -0 -0.3951245 -13.59395 12.06734 -1.215688 -1.55644 4.267015 3.392779 11.3909 -8.613579 1.166403 20.52235 6.975233 3.084157 -25.20109 9.12538 5.309467 -17.42786 11.69179 90.45056 34.90054 -24.99683 -0 0 8.732946 -7.413136 9.24779 4.554085 5.948094 -22.40287 -3.579191 -89.24859 23.42689 17.90268 0 0 -24.49249 10.43729 9.813046 3.845453
4.290847 100.4992 44.00368 -3.396724 2.613142 4.107151 9.346394 -26.10697 3.47843 -0 15.18654 -0 -9.753874 -0.6914708 -0.8765243 -3.095918 10.57876 -10.78931 -0 40.31661 -0 -2.677106 -9.123413 10.0633 -1.129135 -1.536541 4.33427 3.335874 11.51619 -8.656677 1.134185 20.51646 6.932053 3.112883 -25.10685 8.973432 5.302709 -17.41468 11.66807 90.59767 34.66402 -25.25344 -0 0 8.651183 -7.658682 9.275693 4.566105 5.941955 -22.58681 -3.684449 -89.36068 23.63986 18.06656 0 0 -24.48012 10.02409 9.810816 4.452715
4.595313 101.5914 50.15248 -3.053277 1.373829 3.589907 8.896683 -19.81497 3.197193 -0 15.65841 -0 -10.18215 -3.06991 -1.691041 -2.814895 6.367667 -9.371718 -0 50.54228 -0 -4.012565 -5.379817 8.82076 -1.051608 -1.518212 4.40271 3.273723 11.62552 -8.689682 1.102952 20.51106 6.897393 3.144697 -25.02073 8.833122 5.293606 -17.41412 11.64516 90.72059 34.47156 -25.46458 -0 0 8.597523 -7.913682 9.313826 4.59328 5.938312 -22.75601 -3.773766 -89.46248 23.84591 18.22482 0 0 -24.48265 9.638228 9.811541 5.023812
4.916893 102.9459 55.92488 -2.182014 -0.1963905 2.795997 7.951856 -13.9875 2.430133 -0 14.54428 -0 -10.26381 -5.177676 -1.792441 -2.858404 0.5937836 -8.554862 -0 59.28843 -0 -4.546215 -3.644721 8.521789 -0.9824565 -1.500167 4.471101 3.207541 11.72043 -8.713816 1.07277 20.50675 6.869564 3.17868 -24.93959 8.702175 5.282326 -17.42256 11.62324 90.82209 34.31701 -25.63531 -0 0 8.566022 -8.178262 9.361513 4.634889 5.936031 -22.91135 -3.84978 -89.55236 24.04477 18.37363 0 0 -24.49837 9.275074 9.813634 5.563314
5.252236 104.2976 61.33881 -0.9995328 -2.075015 2.001212 6.677959 -8.761555 1.662139 -0 12.43618 -0 -9.650294 -6.32995 -1.306429 -2.901666 -5.717735 -8.043299 -0 64.1848 -0 -4.680685 -3.859268 9.49917 -0.9211847 -1.481459 4.538632 3.138234 11.8023 -8.730057 1.043757 20.5041 6.84693 3.214013 -24.86061 8.578522 5.269197 -17.43719 11.6025 90.90383 34.19477 -25.76915 -0 0 8.552627 -8.452886 9.418391 4.690275 5.934128 -23.0533 -3.914348 -89.62976 24.23622 18.51067 0 0 -24.52389 8.930181 9.816487 6.07547
5.533954 105.3264 66.56116 0.1140265 -3.929926 1.359004 5.493273 -3.18311 1.706125 -0 10.58742 -0 -8.328522 -7.132304 -1.06832 -2.379578 -11.84641 -6.990186 -0 63.21987 -0 -4.456003 -4.710809 11.79796 -0.8674269 -1.461389 4.604802 3.066499 11.8723 -8.739159 1.016033 20.50362 6.828017 3.249966 -24.78141 8.460375 5.254563 -17.45589 11.58312 90.96672 34.10006 -25.86843 -0 0 8.554619 -8.738196 9.48426 4.758966 5.931725 -23.18209 -3.968792 -89.69468 24.41993 18.63463 0 0 -24.55521 8.599628 9.819887 6.563918
5.757062 105.7532 71.71538 0.6786872 -5.223721 0.7947441 4.950573 2.481102 2.312843 -0 9.365124 -0 -6.978572 -8.501418 -1.241731 -0.966352 -17.25239 -5.234485 -0 55.92626 -0 -3.912644 -5.274979 14.43902 -0.820919 -1.439435 4.669322 2.992898 11.93145 -8.741692 0.9897 20.50568 6.811553 3.285889 -24.7001 8.346251 5.238717 -17.47711 11.56527 91.01111 34.02886 -25.93462 -0 0 8.5702 -9.034907 9.558995 4.840692 5.92803 -23.29772 -4.014077 -89.74738 24.59544 18.74486 0 0 -24.5884 8.280131 9.823686 7.031617
6.013483 105.501 76.85799 0.5967905 -5.626619 0.1941159 5.041165 7.176389 2.590632 -0 8.471367 -0 -6.227083 -10.62752 -1.279463 0.9524222 -21.57805 -3.411792 -0 44.75923 -0 -3.198175 -5.358735 16.20303 -0.7814711 -1.415203 4.732051 2.917909 11.98057 -8.738086 0.9648279 20.51057 6.796474 3.321205 -24.61515 8.234942 5.221881 -17.49971 11.54916 91.03709 33.9778 -25.96858 -0 0 8.5982 -9.343754 9.642497 4.935368 5.922323 -23.40009 -4.050942 -89.78817 24.76211 18.84111 0 0 -24.61985 7.96903 9.827634 7.480885
